<svg width="128" height="144" viewBox="0 0 128 144" fill="none" xmlns="http://www.w3.org/2000/svg">
<rect x="3" y="11" width="122" height="122" rx="16" fill="white" fill-opacity="0.5"/>
<path d="M31 0C32.1046 0 33 0.895431 33 2V8H39V2C39 0.895431 39.8954 0 41 0H45C46.1046 0 47 0.895431 47 2V8H53V2C53 0.895431 53.8954 0 55 0H59C60.1046 0 61 0.895431 61 2V8H67V2C67 0.895431 67.8954 0 69 0H73C74.1046 0 75 0.895431 75 2V8H81V2C81 0.895431 81.8954 0 83 0H87C88.1046 0 89 0.895431 89 2V8H95V2C95 0.895431 95.8954 0 97 0H101C102.105 0 103 0.895431 103 2V8H110C119.941 8 128 16.0589 128 26V118C128 127.941 119.941 136 110 136H103V142C103 143.105 102.105 144 101 144H97C95.8954 144 95 143.105 95 142V136H89V142C89 143.105 88.1046 144 87 144H83C81.8954 144 81 143.105 81 142V136H75V142C75 143.105 74.1046 144 73 144H69C67.8954 144 67 143.105 67 142V136H61V142C61 143.105 60.1046 144 59 144H55C53.8954 144 53 143.105 53 142V136H47V142C47 143.105 46.1046 144 45 144H41C39.8954 144 39 143.105 39 142V136H33V142C33 143.105 32.1046 144 31 144H27C25.8954 144 25 143.105 25 142V136H18C8.05888 136 0 127.941 0 118V26C0 16.0589 8.05888 8 18 8H25V2C25 0.895431 25.8954 0 27 0H31ZM19 11C10.1634 11 3 18.1634 3 27V117C3 125.837 10.1634 133 19 133H109C117.837 133 125 125.837 125 117V27C125 18.1634 117.837 11 109 11H19ZM108 13C116.284 13 123 19.7157 123 28V116C123 124.284 116.284 131 108 131H20C11.7157 131 5 124.284 5 116V28C5 19.7157 11.7157 13 20 13H108Z" fill="url(#paint0_linear_4117_484)"/>
<path fill-rule="evenodd" clip-rule="evenodd" d="M36 31.001C36.0206 31.0002 76 29.5162 76 74.0059C75.9998 106.004 48.4999 113.506 34 113.506H13.5V31.0059L36 31.001ZM34.75 51.0713V94C41.4167 93.7398 55.4999 92.9999 55.5 72C55.5 50.0002 34.75 51.0713 34.75 51.0713Z" fill="white"/>
<path d="M117.104 99.7588C109.307 109.074 97.5962 115 84.499 115C77.1069 115 70.1566 113.111 64.1016 109.792C69.7243 105.922 74.6064 100.583 77.7734 93.4707C79.8936 94.1502 82.1533 94.5186 84.499 94.5186C91.5073 94.5186 97.7496 91.243 101.782 86.1406L117.104 99.7588Z" fill="white"/>
<path d="M84.499 30C97.8647 30 109.787 36.1715 117.578 45.8184L102.236 59.4541C98.2274 54.0127 91.776 50.4814 84.499 50.4814C82.0576 50.4814 79.7093 50.8797 77.5146 51.6133C76.6572 49.5774 75.6817 47.6851 74.6045 45.9277C71.7483 41.2682 68.2585 37.69 64.5791 34.9502C70.521 31.7915 77.3005 30 84.499 30Z" fill="white"/>
<defs>
<linearGradient id="paint0_linear_4117_484" x1="0" y1="0" x2="125" y2="148.5" gradientUnits="userSpaceOnUse">
<stop stop-color="#2D2D2D"/>
<stop offset="1"/>
</linearGradient>
</defs>
</svg>
